Coordinates
version=1
nRows=6
nColumns=38
inDegrees=yes

Units are S.I. units (second, meters, Newtons, ...)
Angles are in degrees.

endheader
time	pelvis_tilt	pelvis_list	pelvis_rotation	pelvis_tx	pelvis_ty	pelvis_tz	hip_flexion_r	hip_adduction_r	hip_rotation_r	knee_angle_r	ankle_angle_r	subtalar_angle_r	mtp_angle_r	hip_flexion_l	hip_adduction_l	hip_rotation_l	knee_angle_l	ankle_angle_l	subtalar_angle_l	mtp_angle_l	lumbar_extension	lumbar_bending	lumbar_rotation	arm_flex_r	arm_add_r	arm_rot_r	elbow_flex_r	pro_sup_r	wrist_flex_r	wrist_dev_r	arm_flex_l	arm_add_l	arm_rot_l	elbow_flex_l	pro_sup_l	wrist_flex_l	wrist_dev_l
      3.48000000	     10.76612676	     -1.28520236	     -0.89644363	     -0.01224615	      0.91275818	      0.00150454	    -17.04459855	      2.73540007	     -5.91482596	     -1.47237834	      0.54967791	      0.00000000	      0.00000000	    -15.51086027	     -1.05975911	    -10.89202444	     -4.16490010	     -1.38204370	      0.00000000	      0.00000000	    -22.10716614	     -1.10876217	      2.29582310	      1.22888946	     -2.19858429	    -20.09048403	     32.14362488	    113.55432242	      0.00000000	      0.00000000	      5.78022974	     -2.33842263	    -20.98396213	     30.20851157	    113.56731853	      0.00000000	      0.00000000
      3.49000000	     10.60531552	     -1.26315299	     -0.86676624	     -0.01289886	      0.91263739	      0.00156632	    -16.95575294	      2.73739227	     -5.93435835	     -1.40752891	      0.50447022	      0.00000000	      0.00000000	    -15.41074349	     -1.04898549	    -10.85206179	     -4.10964269	     -1.44381003	      0.00000000	      0.00000000	    -22.06222089	     -1.13843646	      2.27918352	      1.31382207	     -2.22673519	    -20.12890685	     32.18037944	    113.52363524	      0.00000000	      0.00000000	      5.86652547	     -2.35805860	    -20.96181042	     30.24216668	    113.55727864	      0.00000000	      0.00000000
      3.50000000	     10.43292144	     -1.23373765	     -0.82632985	     -0.01365139	      0.91253044	      0.00159260	    -16.84809451	      2.73096845	     -5.96894314	     -1.34919723	      0.46486473	      0.00000000	      0.00000000	    -15.29149905	     -1.03200876	    -10.80337171	     -4.05640705	     -1.49398508	      0.00000000	      0.00000000	    -22.01822491	     -1.17212744	      2.25196651	      1.40639615	     -2.26127306	    -20.16389671	     32.23124708	    113.48903184	      0.00000000	      0.00000000	      5.95780835	     -2.37909098	    -20.93622864	     30.28826468	    113.54139037	      0.00000000	      0.00000000
      3.51000000	     10.24778136	     -1.19827752	     -0.77309250	     -0.01454212	      0.91242532	      0.00158754	    -16.71520716	      2.71933945	     -6.02245032	     -1.29908492	      0.43163619	      0.00000000	      0.00000000	    -15.14437985	     -1.01184676	    -10.74121501	     -4.01224997	     -1.53348874	      0.00000000	      0.00000000	    -21.97961507	     -1.20894928	      2.21141836	      1.50902451	     -2.30085901	    -20.19316548	     32.29807789	    113.45079762	      0.00000000	      0.00000000	      6.05686568	     -2.40216309	    -20.90685593	     30.34839857	    113.52056154	      0.00000000	      0.00000000
      3.52000000	     10.04510494	     -1.15935141	     -0.70536152	     -0.01557893	      0.91230253	      0.00156963	    -16.54974216	      2.70740106	     -6.09629861	     -1.25892953	      0.40517447	      0.00000000	      0.00000000	    -14.96032967	     -0.99325100	    -10.66178907	     -3.98413013	     -1.56486870	      0.00000000	      0.00000000	    -21.94722483	     -1.24673520	      2.15677089	      1.62388970	     -2.34418053	    -20.21467143	     32.38231929	    113.40930642	      0.00000000	      0.00000000	      6.16654910	     -2.42784774	    -20.87298328	     30.42414372	    113.49602571	      0.00000000	      0.00000000
      3.53000000	      9.81953270	     -1.11927028	     -0.62190762	     -0.01676001	      0.91215711	      0.00155507	    -16.34587747	      2.69940747	     -6.18947463	     -1.22993455	      0.38518698	      0.00000000	      0.00000000	    -14.73206989	     -0.98077613	    -10.56393523	     -3.97578490	     -1.59127858	      0.00000000	      0.00000000	    -21.91777452	     -1.28274753	      2.08929932	      1.75180314	     -2.39089339	    -20.22667982	     32.48476428	    113.36500634	      0.00000000	      0.00000000	      6.28843506	     -2.45620694	    -20.83377284	     30.51691448	    113.46923197	      0.00000000	      0.00000000
